<?xml version="1.0" encoding="UTF-8" standalone="no"?>
<!DOCTYPE svg PUBLIC "-//W3C//DTD SVG 1.1//EN" "http://www.w3.org/Graphics/SVG/1.1/DTD/svg11.dtd">
<svg version="1.1" xmlns="http://www.w3.org/2000/svg" xmlns:xlink="http://www.w3.org/1999/xlink" preserveAspectRatio="xMidYMid meet" viewBox="0 0 640 640" width="640" height="640"><defs><path d="M239.07 315.56C239.07 325.63 239.07 406.23 239.07 416.3C239.07 417.69 240.2 418.82 241.59 418.82C243.31 418.82 256.99 418.82 258.7 418.82C260.09 418.82 261.22 417.69 261.22 416.3C261.22 406.23 261.22 325.63 261.22 315.56C261.22 314.17 260.09 313.04 258.7 313.04C255.28 313.04 245.02 313.04 241.59 313.04C240.2 313.04 239.07 314.17 239.07 315.56Z" id="dVDbPL1I6"></path><path d="M239.07 315.56C239.07 325.63 239.07 406.23 239.07 416.3C239.07 417.69 240.2 418.82 241.59 418.82C243.31 418.82 256.99 418.82 258.7 418.82C260.09 418.82 261.22 417.69 261.22 416.3C261.22 406.23 261.22 325.63 261.22 315.56C261.22 314.17 260.09 313.04 258.7 313.04C255.28 313.04 245.02 313.04 241.59 313.04C240.2 313.04 239.07 314.17 239.07 315.56Z" id="e2QbJKaAhb"></path><path d="M381.29 315.56C381.29 325.63 381.29 406.23 381.29 416.3C381.29 417.69 382.42 418.82 383.81 418.82C385.52 418.82 399.2 418.82 400.91 418.82C402.3 418.82 403.43 417.69 403.43 416.3C403.43 406.23 403.43 325.63 403.43 315.56C403.43 314.17 402.3 313.04 400.91 313.04C397.49 313.04 387.23 313.04 383.81 313.04C382.42 313.04 381.29 314.17 381.29 315.56Z" id="ahZr3Tmzd"></path><path d="M381.29 315.56C381.29 325.63 381.29 406.23 381.29 416.3C381.29 417.69 382.42 418.82 383.81 418.82C385.52 418.82 399.2 418.82 400.91 418.82C402.3 418.82 403.43 417.69 403.43 416.3C403.43 406.23 403.43 325.63 403.43 315.56C403.43 314.17 402.3 313.04 400.91 313.04C397.49 313.04 387.23 313.04 383.81 313.04C382.42 313.04 381.29 314.17 381.29 315.56Z" id="ahKMJrsgA"></path><path d="M437.19 240.71L462.26 236.37L463.71 233L463.71 233L332.58 222.87L437.19 240.71Z" id="dk027wwDo"></path><path d="M437.19 240.71L462.26 236.37L463.71 233L463.71 233L332.58 222.87L437.19 240.71Z" id="a345wOcDzx"></path><path d="M463.47 234.21L464.67 234.3L463.23 237.68L438.16 242.01L333.55 222.87L364.55 226.57L438.16 239.12L438.16 239.12L463.23 234.78L463.47 234.21Z" id="dw0p98Byf"></path><path d="M463.47 234.21L464.67 234.3L463.23 237.68L438.16 242.01L333.55 222.87L364.55 226.57L438.16 239.12L438.16 239.12L463.23 234.78L463.47 234.21Z" id="f1SNSymZi9"></path><path d="M140.23 240.71L165.3 236.37L166.75 233L166.75 233L35.62 222.87L140.23 240.71Z" id="a4yn86DIlY"></path><path d="M140.23 240.71L165.3 236.37L166.75 233L166.75 233L35.62 222.87L140.23 240.71Z" id="b19TOiCSiK"></path><path d="M164.1 234.21L165.3 234.3L163.85 237.68L138.78 242.01L34.17 222.87L65.17 226.57L138.78 239.12L138.78 239.12L163.85 234.78L164.1 234.21Z" id="b1oLjUGuiH"></path><path d="M164.1 234.21L165.3 234.3L163.85 237.68L138.78 242.01L34.17 222.87L65.17 226.57L138.78 239.12L138.78 239.12L163.85 234.78L164.1 234.21Z" id="eajzEhPP4X"></path><path d="M474.8 286.02L373.22 328.88L367.4 333.75L348.97 349.18L291.12 349.18L273.7 333.75L267.08 327.88L169.64 286.51L160.96 285.54C178.32 277.15 187.96 272.49 189.89 271.56C189.98 271.56 190.03 271.56 190.04 271.56C196.6 265.34 253.38 260.47 322.46 260.47C391.54 260.47 448.32 265.34 454.88 271.56C454.92 271.56 455.13 271.56 455.51 271.56C457.53 272.49 467.66 277.15 485.88 285.54L474.8 286.02Z" id="fcZh6jnpR"></path><path d="M474.8 286.02L373.22 328.88L367.4 333.75L348.97 349.18L291.12 349.18L273.7 333.75L267.08 327.88L169.64 286.51L160.96 285.54C178.32 277.15 187.96 272.49 189.89 271.56C189.98 271.56 190.03 271.56 190.04 271.56C196.6 265.34 253.38 260.47 322.46 260.47C391.54 260.47 448.32 265.34 454.88 271.56C454.92 271.56 455.13 271.56 455.51 271.56C457.53 272.49 467.66 277.15 485.88 285.54L474.8 286.02Z" id="d1OJBYjalc"></path><path d="M189.4 247.58C189.4 244.58 186.97 242.15 183.98 242.15C183.76 242.15 182 242.15 181.78 242.15C186.84 237.05 186.8 228.81 181.69 223.75C176.59 218.69 168.34 218.73 163.28 223.83C158.26 228.9 158.26 237.08 163.28 242.15C163.06 242.15 161.3 242.15 161.08 242.15C158.09 242.15 155.66 244.58 155.66 247.58C155.66 247.58 155.66 247.58 155.66 247.58C155.66 249.87 155.66 268.19 155.66 270.48C155.66 271.41 155.9 272.34 156.37 273.15C154.73 273.44 153.09 273.75 151.45 274.11C149.4 274.57 147.94 276.39 147.94 278.5C147.94 279.04 147.94 283.39 147.94 283.94C147.94 286.42 149.96 288.43 152.44 288.43C155.84 288.43 172.82 288.43 203.38 288.43C203.38 280.34 203.38 275.84 203.38 274.94C198.68 273.75 193.91 272.86 189.09 272.28C189.3 271.7 189.4 271.09 189.4 270.48C189.4 268.19 189.4 249.87 189.4 247.58Z" id="cEL4nrS9M"></path><path d="M189.4 247.58C189.4 244.58 186.97 242.15 183.98 242.15C183.76 242.15 182 242.15 181.78 242.15C186.84 237.05 186.8 228.81 181.69 223.75C176.59 218.69 168.34 218.73 163.28 223.83C158.26 228.9 158.26 237.08 163.28 242.15C163.06 242.15 161.3 242.15 161.08 242.15C158.09 242.15 155.66 244.58 155.66 247.58C155.66 247.58 155.66 247.58 155.66 247.58C155.66 249.87 155.66 268.19 155.66 270.48C155.66 271.41 155.9 272.34 156.37 273.15C154.73 273.44 153.09 273.75 151.45 274.11C149.4 274.57 147.94 276.39 147.94 278.5C147.94 279.04 147.94 283.39 147.94 283.94C147.94 286.42 149.96 288.43 152.44 288.43C155.84 288.43 172.82 288.43 203.38 288.43C203.38 280.34 203.38 275.84 203.38 274.94C198.68 273.75 193.91 272.86 189.09 272.28C189.3 271.7 189.4 271.09 189.4 270.48C189.4 268.19 189.4 249.87 189.4 247.58Z" id="afu0fSjzj"></path><path d="M486.37 270.48C486.37 268.19 486.37 249.87 486.37 247.58C486.37 244.58 483.94 242.15 480.94 242.15C480.94 242.15 480.94 242.15 480.94 242.15C480.72 242.15 478.96 242.15 478.74 242.15C483.8 237.05 483.76 228.81 478.66 223.75C473.55 218.69 465.31 218.73 460.25 223.83C455.22 228.9 455.22 237.08 460.25 242.15C460.03 242.15 458.27 242.15 458.05 242.15C455.05 242.15 452.62 244.58 452.62 247.58C452.62 247.58 452.62 247.58 452.62 247.58C452.62 249.87 452.62 268.19 452.62 270.48C452.62 271.09 452.73 271.7 452.93 272.28C448.12 272.86 443.34 273.75 438.64 274.94C438.64 275.84 438.64 280.34 438.64 288.43C469.21 288.43 486.19 288.43 489.58 288.43C492.07 288.43 494.08 286.42 494.08 283.94C494.08 283.39 494.08 279.04 494.08 278.5C494.08 276.39 492.62 274.57 490.57 274.11C488.93 273.75 487.3 273.44 485.66 273.15C486.12 272.34 486.37 271.41 486.37 270.48Z" id="c45QJrGgR"></path><path d="M486.37 270.48C486.37 268.19 486.37 249.87 486.37 247.58C486.37 244.58 483.94 242.15 480.94 242.15C480.94 242.15 480.94 242.15 480.94 242.15C480.72 242.15 478.96 242.15 478.74 242.15C483.8 237.05 483.76 228.81 478.66 223.75C473.55 218.69 465.31 218.73 460.25 223.83C455.22 228.9 455.22 237.08 460.25 242.15C460.03 242.15 458.27 242.15 458.05 242.15C455.05 242.15 452.62 244.58 452.62 247.58C452.62 247.58 452.62 247.58 452.62 247.58C452.62 249.87 452.62 268.19 452.62 270.48C452.62 271.09 452.73 271.7 452.93 272.28C448.12 272.86 443.34 273.75 438.64 274.94C438.64 275.84 438.64 280.34 438.64 288.43C469.21 288.43 486.19 288.43 489.58 288.43C492.07 288.43 494.08 286.42 494.08 283.94C494.08 283.39 494.08 279.04 494.08 278.5C494.08 276.39 492.62 274.57 490.57 274.11C488.93 273.75 487.3 273.44 485.66 273.15C486.12 272.34 486.37 271.41 486.37 270.48Z" id="ad09t6K0U"></path><path d="M501.79 240.71L476.73 236.37L475.28 233L475.28 233L606.41 222.87L501.79 240.71Z" id="b2fNDWhNrP"></path><path d="M501.79 240.71L476.73 236.37L475.28 233L475.28 233L606.41 222.87L501.79 240.71Z" id="g5HCAPEFB"></path><path d="M304.14 350.58C304.14 350.58 304.14 350.58 304.14 350.58C304.14 351.02 304.14 354.57 304.14 355.01C304.14 357.39 305.62 359.53 307.85 360.37C307.01 361.38 306.55 362.65 306.55 363.97C306.55 364.1 306.55 365.11 306.55 365.24C306.55 367.08 307.45 368.8 308.96 369.86C308.96 370.98 308.96 376.62 308.96 386.78C311.18 386.78 328.92 386.78 331.14 386.78C331.14 376.62 331.14 370.98 331.14 369.86C332.65 368.8 333.55 367.08 333.55 365.24C333.55 365.11 333.55 364.1 333.55 363.97C333.55 362.65 333.09 361.38 332.25 360.37C334.48 359.53 335.96 357.39 335.96 355.01C335.96 354.57 335.96 351.02 335.96 350.58C335.96 347.41 333.39 344.84 330.22 344.84C330.22 344.84 330.22 344.84 330.22 344.84C330.22 344.84 311.91 344.84 309.88 344.84C306.71 344.84 304.14 347.41 304.14 350.58Z" id="a1G0sDm7DD"></path><path d="M304.14 350.58C304.14 350.58 304.14 350.58 304.14 350.58C304.14 351.02 304.14 354.57 304.14 355.01C304.14 357.39 305.62 359.53 307.85 360.37C307.01 361.38 306.55 362.65 306.55 363.97C306.55 364.1 306.55 365.11 306.55 365.24C306.55 367.08 307.45 368.8 308.96 369.86C308.96 370.98 308.96 376.62 308.96 386.78C311.18 386.78 328.92 386.78 331.14 386.78C331.14 376.62 331.14 370.98 331.14 369.86C332.65 368.8 333.55 367.08 333.55 365.24C333.55 365.11 333.55 364.1 333.55 363.97C333.55 362.65 333.09 361.38 332.25 360.37C334.48 359.53 335.96 357.39 335.96 355.01C335.96 354.57 335.96 351.02 335.96 350.58C335.96 347.41 333.39 344.84 330.22 344.84C330.22 344.84 330.22 344.84 330.22 344.84C330.22 344.84 311.91 344.84 309.88 344.84C306.71 344.84 304.14 347.41 304.14 350.58Z" id="ceV4UgWNc"></path><path d="M295.96 387.8C295.96 390.54 295.96 412.43 295.96 415.17C295.96 417.05 297.49 418.58 299.38 418.58C303.51 418.58 336.59 418.58 340.72 418.58C342.61 418.58 344.13 417.05 344.14 415.17C344.14 412.43 344.14 390.54 344.14 387.8C344.13 385.91 342.61 384.39 340.72 384.38C332.45 384.38 307.64 384.38 299.38 384.38C297.49 384.39 295.96 385.91 295.96 387.8Z" id="a1j0QMjOE1"></path><path d="M295.96 387.8C295.96 390.54 295.96 412.43 295.96 415.17C295.96 417.05 297.49 418.58 299.38 418.58C303.51 418.58 336.59 418.58 340.72 418.58C342.61 418.58 344.13 417.05 344.14 415.17C344.14 412.43 344.14 390.54 344.14 387.8C344.13 385.91 342.61 384.39 340.72 384.38C332.45 384.38 307.64 384.38 299.38 384.38C297.49 384.39 295.96 385.91 295.96 387.8Z" id="b3RAyyPdeb"></path><path d="M348.97 349.18L291.12 349.18L273.7 333.75C284.1 333.75 289.87 333.75 291.03 333.75C291.48 331.49 291.73 330.23 291.78 329.98C292.24 327.69 294.25 326.04 296.58 326.04C301.42 326.04 340.12 326.04 344.96 326.04C347.29 326.04 349.3 327.69 349.76 329.98C349.81 330.23 350.06 331.49 350.52 333.75C351.65 333.75 357.27 333.75 367.4 333.75L348.97 349.18Z" id="f1l1Xolhd3"></path><path d="M348.97 349.18L291.12 349.18L273.7 333.75C284.1 333.75 289.87 333.75 291.03 333.75C291.48 331.49 291.73 330.23 291.78 329.98C292.24 327.69 294.25 326.04 296.58 326.04C301.42 326.04 340.12 326.04 344.96 326.04C347.29 326.04 349.3 327.69 349.76 329.98C349.81 330.23 350.06 331.49 350.52 333.75C351.65 333.75 357.27 333.75 367.4 333.75L348.97 349.18Z" id="cYff79MCP"></path><path d="M306.55 401.48C306.55 408.94 312.59 414.98 320.05 414.98C327.5 414.98 333.55 408.94 333.55 401.48C333.55 394.03 327.5 387.98 320.05 387.98C312.59 387.98 306.55 394.03 306.55 401.48Z" id="acEHJg3P3"></path><path d="M306.55 401.48C306.55 408.94 312.59 414.98 320.05 414.98C327.5 414.98 333.55 408.94 333.55 401.48C333.55 394.03 327.5 387.98 320.05 387.98C312.59 387.98 306.55 394.03 306.55 401.48Z" id="b1vAomfiCQ"></path><path d="M312.33 401.48C312.33 405.74 315.79 409.2 320.05 409.2C324.31 409.2 327.76 405.74 327.76 401.48C327.76 397.22 324.31 393.77 320.05 393.77C315.79 393.77 312.33 397.22 312.33 401.48Z" id="c4wkDGLxuV"></path><path d="M312.33 401.48C312.33 405.74 315.79 409.2 320.05 409.2C324.31 409.2 327.76 405.74 327.76 401.48C327.76 397.22 324.31 393.77 320.05 393.77C315.79 393.77 312.33 397.22 312.33 401.48Z" id="a24qsnAMGt"></path><path d="M313.91 406.15C316.48 409.54 321.32 410.2 324.71 407.63C328.1 405.06 328.77 400.23 326.2 396.83C325.77 396.27 325.27 395.77 324.71 395.35C327.29 398.73 326.64 403.57 323.26 406.15C320.5 408.25 316.67 408.25 313.91 406.15Z" id="l2f8pWbjz"></path><path d="M313.91 406.15C316.48 409.54 321.32 410.2 324.71 407.63C328.1 405.06 328.77 400.23 326.2 396.83C325.77 396.27 325.27 395.77 324.71 395.35C327.29 398.73 326.64 403.57 323.26 406.15C320.5 408.25 316.67 408.25 313.91 406.15Z" id="e2wtOprYzN"></path><path d="M494.32 279.86C494.32 281.18 494.32 281.92 494.32 282.07C494.32 282.07 494.32 282.07 494.32 282.07C286.64 282.07 171.26 282.07 148.19 282.07C148.19 282.07 148.19 282.07 148.19 282.07C148.19 280.74 148.19 280.01 148.19 279.86C148.19 279.86 148.19 279.86 148.19 279.86C355.87 279.86 471.25 279.86 494.32 279.86C494.32 279.86 494.32 279.86 494.32 279.86Z" id="akqtnSEfG"></path><path d="M494.32 279.86C494.32 281.18 494.32 281.92 494.32 282.07C494.32 282.07 494.32 282.07 494.32 282.07C286.64 282.07 171.26 282.07 148.19 282.07C148.19 282.07 148.19 282.07 148.19 282.07C148.19 280.74 148.19 280.01 148.19 279.86C148.19 279.86 148.19 279.86 148.19 279.86C355.87 279.86 471.25 279.86 494.32 279.86C494.32 279.86 494.32 279.86 494.32 279.86Z" id="cJRhgpIZC"></path><path d="M477.44 234.21L476.24 234.3L477.69 237.68L502.76 242.01L607.37 222.87L576.37 226.57L502.76 239.12L502.76 239.12L477.69 234.78L477.44 234.21Z" id="bNwvhgKhl"></path><path d="M477.44 234.21L476.24 234.3L477.69 237.68L502.76 242.01L607.37 222.87L576.37 226.57L502.76 239.12L502.76 239.12L477.69 234.78L477.44 234.21Z" id="aibeJL5fF"></path><path d="M204.83 240.71L179.76 236.37L178.32 233L178.32 233L309.44 222.87L204.83 240.71Z" id="f2iafIFkE"></path><path d="M204.83 240.71L179.76 236.37L178.32 233L178.32 233L309.44 222.87L204.83 240.71Z" id="a2qiDFDvgS"></path><path d="M180.96 234.21L179.76 234.3L181.21 237.68L206.28 242.01L310.89 222.87L279.89 226.57L206.28 239.12L206.28 239.12L181.21 234.78L180.96 234.21Z" id="b2EdOrPT"></path><path d="M180.96 234.21L179.76 234.3L181.21 237.68L206.28 242.01L310.89 222.87L279.89 226.57L206.28 239.12L206.28 239.12L181.21 234.78L180.96 234.21Z" id="lQ5UaTCjR"></path><path d="M340.05 330.13C340.05 334.76 340.05 337.33 340.05 337.85C340.05 337.85 340.05 337.85 340.05 337.85C316.91 337.85 304.06 337.85 301.49 337.85C301.49 337.85 301.49 337.85 301.49 337.85C301.49 333.22 301.49 330.65 301.49 330.13C301.49 330.13 301.49 330.13 301.49 330.13C324.63 330.13 337.48 330.13 340.05 330.13C340.05 330.13 340.05 330.13 340.05 330.13Z" id="aFDHQluuz"></path><path d="M340.05 330.13C340.05 334.76 340.05 337.33 340.05 337.85C340.05 337.85 340.05 337.85 340.05 337.85C316.91 337.85 304.06 337.85 301.49 337.85C301.49 337.85 301.49 337.85 301.49 337.85C301.49 333.22 301.49 330.65 301.49 330.13C301.49 330.13 301.49 330.13 301.49 330.13C324.63 330.13 337.48 330.13 340.05 330.13C340.05 330.13 340.05 330.13 340.05 330.13Z" id="aW3Q4voLh"></path><path d="M609.86 418.56C609.86 419.44 609.86 419.93 609.86 420.02C609.86 420.02 609.86 420.02 609.86 420.02C262.03 420.02 68.79 420.02 30.14 420.02C30.14 420.02 30.14 420.02 30.14 420.02C30.14 419.15 30.14 418.66 30.14 418.56C30.14 418.56 30.14 418.56 30.14 418.56C377.97 418.56 571.21 418.56 609.86 418.56C609.86 418.56 609.86 418.56 609.86 418.56Z" id="giI1RZxVg"></path><path d="M609.86 418.56C609.86 419.44 609.86 419.93 609.86 420.02C609.86 420.02 609.86 420.02 609.86 420.02C262.03 420.02 68.79 420.02 30.14 420.02C30.14 420.02 30.14 420.02 30.14 420.02C30.14 419.15 30.14 418.66 30.14 418.56C30.14 418.56 30.14 418.56 30.14 418.56C377.97 418.56 571.21 418.56 609.86 418.56C609.86 418.56 609.86 418.56 609.86 418.56Z" id="b1iO523ylX"></path></defs><g><g><g><use xlink:href="#dVDbPL1I6" opacity="1" fill="#3f3d56" fill-opacity="1"></use><g><use xlink:href="#dVDbPL1I6" opacity="1" fill-opacity="0" stroke="#000000" stroke-width="1" stroke-opacity="0"></use></g></g><g><use xlink:href="#e2QbJKaAhb" opacity="1" fill="#000000" fill-opacity="0"></use><g><use xlink:href="#e2QbJKaAhb" opacity="1" fill-opacity="0" stroke="#000000" stroke-width="1" stroke-opacity="0"></use></g></g><g><use xlink:href="#ahZr3Tmzd" opacity="1" fill="#3f3d56" fill-opacity="1"></use><g><use xlink:href="#ahZr3Tmzd" opacity="1" fill-opacity="0" stroke="#000000" stroke-width="1" stroke-opacity="0"></use></g></g><g><use xlink:href="#ahKMJrsgA" opacity="1" fill="#000000" fill-opacity="0"></use><g><use xlink:href="#ahKMJrsgA" opacity="1" fill-opacity="0" stroke="#000000" stroke-width="1" stroke-opacity="0"></use></g></g><g><use xlink:href="#dk027wwDo" opacity="1" fill="#3f3d56" fill-opacity="1"></use><g><use xlink:href="#dk027wwDo" opacity="1" fill-opacity="0" stroke="#000000" stroke-width="1" stroke-opacity="0"></use></g></g><g><use xlink:href="#a345wOcDzx" opacity="1" fill="#000000" fill-opacity="0"></use><g><use xlink:href="#a345wOcDzx" opacity="1" fill-opacity="0" stroke="#000000" stroke-width="1" stroke-opacity="0"></use></g></g><g><use xlink:href="#dw0p98Byf" opacity="1" fill="#67dad5" fill-opacity="1"></use><g><use xlink:href="#dw0p98Byf" opacity="1" fill-opacity="0" stroke="#000000" stroke-width="1" stroke-opacity="0"></use></g></g><g><use xlink:href="#f1SNSymZi9" opacity="1" fill="#000000" fill-opacity="0"></use><g><use xlink:href="#f1SNSymZi9" opacity="1" fill-opacity="0" stroke="#000000" stroke-width="1" stroke-opacity="0"></use></g></g><g><use xlink:href="#a4yn86DIlY" opacity="1" fill="#3f3d56" fill-opacity="1"></use><g><use xlink:href="#a4yn86DIlY" opacity="1" fill-opacity="0" stroke="#000000" stroke-width="1" stroke-opacity="0"></use></g></g><g><use xlink:href="#b19TOiCSiK" opacity="1" fill="#000000" fill-opacity="0"></use><g><use xlink:href="#b19TOiCSiK" opacity="1" fill-opacity="0" stroke="#000000" stroke-width="1" stroke-opacity="0"></use></g></g><g><use xlink:href="#b1oLjUGuiH" opacity="1" fill="#67dad5" fill-opacity="1"></use><g><use xlink:href="#b1oLjUGuiH" opacity="1" fill-opacity="0" stroke="#000000" stroke-width="1" stroke-opacity="0"></use></g></g><g><use xlink:href="#eajzEhPP4X" opacity="1" fill="#000000" fill-opacity="0"></use><g><use xlink:href="#eajzEhPP4X" opacity="1" fill-opacity="0" stroke="#000000" stroke-width="1" stroke-opacity="0"></use></g></g><g><use xlink:href="#fcZh6jnpR" opacity="1" fill="#3f3d56" fill-opacity="1"></use><g><use xlink:href="#fcZh6jnpR" opacity="1" fill-opacity="0" stroke="#000000" stroke-width="1" stroke-opacity="0"></use></g></g><g><use xlink:href="#d1OJBYjalc" opacity="1" fill="#000000" fill-opacity="0"></use><g><use xlink:href="#d1OJBYjalc" opacity="1" fill-opacity="0" stroke="#000000" stroke-width="1" stroke-opacity="0"></use></g></g><g><use xlink:href="#cEL4nrS9M" opacity="1" fill="#3f3d56" fill-opacity="1"></use><g><use xlink:href="#cEL4nrS9M" opacity="1" fill-opacity="0" stroke="#000000" stroke-width="1" stroke-opacity="0"></use></g></g><g><use xlink:href="#afu0fSjzj" opacity="1" fill="#000000" fill-opacity="0"></use><g><use xlink:href="#afu0fSjzj" opacity="1" fill-opacity="0" stroke="#000000" stroke-width="1" stroke-opacity="0"></use></g></g><g><use xlink:href="#c45QJrGgR" opacity="1" fill="#3f3d56" fill-opacity="1"></use><g><use xlink:href="#c45QJrGgR" opacity="1" fill-opacity="0" stroke="#000000" stroke-width="1" stroke-opacity="0"></use></g></g><g><use xlink:href="#ad09t6K0U" opacity="1" fill="#000000" fill-opacity="0"></use><g><use xlink:href="#ad09t6K0U" opacity="1" fill-opacity="0" stroke="#000000" stroke-width="1" stroke-opacity="0"></use></g></g><g><use xlink:href="#b2fNDWhNrP" opacity="1" fill="#3f3d56" fill-opacity="1"></use><g><use xlink:href="#b2fNDWhNrP" opacity="1" fill-opacity="0" stroke="#000000" stroke-width="1" stroke-opacity="0"></use></g></g><g><use xlink:href="#g5HCAPEFB" opacity="1" fill="#000000" fill-opacity="0"></use><g><use xlink:href="#g5HCAPEFB" opacity="1" fill-opacity="0" stroke="#000000" stroke-width="1" stroke-opacity="0"></use></g></g><g><use xlink:href="#a1G0sDm7DD" opacity="1" fill="#3f3d56" fill-opacity="1"></use><g><use xlink:href="#a1G0sDm7DD" opacity="1" fill-opacity="0" stroke="#000000" stroke-width="1" stroke-opacity="0"></use></g></g><g><use xlink:href="#ceV4UgWNc" opacity="1" fill="#000000" fill-opacity="0"></use><g><use xlink:href="#ceV4UgWNc" opacity="1" fill-opacity="0" stroke="#000000" stroke-width="1" stroke-opacity="0"></use></g></g><g><use xlink:href="#a1j0QMjOE1" opacity="1" fill="#67dad5" fill-opacity="1"></use><g><use xlink:href="#a1j0QMjOE1" opacity="1" fill-opacity="0" stroke="#000000" stroke-width="1" stroke-opacity="0"></use></g></g><g><use xlink:href="#b3RAyyPdeb" opacity="1" fill="#000000" fill-opacity="0"></use><g><use xlink:href="#b3RAyyPdeb" opacity="1" fill-opacity="0" stroke="#000000" stroke-width="1" stroke-opacity="0"></use></g></g><g><use xlink:href="#f1l1Xolhd3" opacity="1" fill="#67dad5" fill-opacity="1"></use><g><use xlink:href="#f1l1Xolhd3" opacity="1" fill-opacity="0" stroke="#000000" stroke-width="1" stroke-opacity="0"></use></g></g><g><use xlink:href="#cYff79MCP" opacity="1" fill="#000000" fill-opacity="0"></use><g><use xlink:href="#cYff79MCP" opacity="1" fill-opacity="0" stroke="#000000" stroke-width="1" stroke-opacity="0"></use></g></g><g><use xlink:href="#acEHJg3P3" opacity="1" fill="#3f3d56" fill-opacity="1"></use><g><use xlink:href="#acEHJg3P3" opacity="1" fill-opacity="0" stroke="#000000" stroke-width="1" stroke-opacity="0"></use></g></g><g><use xlink:href="#b1vAomfiCQ" opacity="1" fill="#000000" fill-opacity="0"></use><g><use xlink:href="#b1vAomfiCQ" opacity="1" fill-opacity="0" stroke="#000000" stroke-width="1" stroke-opacity="0"></use></g></g><g><use xlink:href="#c4wkDGLxuV" opacity="1" fill="#e6e6e6" fill-opacity="1"></use><g><use xlink:href="#c4wkDGLxuV" opacity="1" fill-opacity="0" stroke="#000000" stroke-width="1" stroke-opacity="0"></use></g></g><g><use xlink:href="#a24qsnAMGt" opacity="1" fill="#000000" fill-opacity="0"></use><g><use xlink:href="#a24qsnAMGt" opacity="1" fill-opacity="0" stroke="#000000" stroke-width="1" stroke-opacity="0"></use></g></g><g><use xlink:href="#l2f8pWbjz" opacity="1" fill="#ffffff" fill-opacity="1"></use><g><use xlink:href="#l2f8pWbjz" opacity="1" fill-opacity="0" stroke="#000000" stroke-width="1" stroke-opacity="0"></use></g></g><g><use xlink:href="#e2wtOprYzN" opacity="1" fill="#000000" fill-opacity="0"></use><g><use xlink:href="#e2wtOprYzN" opacity="1" fill-opacity="0" stroke="#000000" stroke-width="1" stroke-opacity="0"></use></g></g><g><use xlink:href="#akqtnSEfG" opacity="1" fill="#e6e6e6" fill-opacity="1"></use><g><use xlink:href="#akqtnSEfG" opacity="1" fill-opacity="0" stroke="#000000" stroke-width="1" stroke-opacity="0"></use></g></g><g><use xlink:href="#cJRhgpIZC" opacity="1" fill="#000000" fill-opacity="0"></use><g><use xlink:href="#cJRhgpIZC" opacity="1" fill-opacity="0" stroke="#000000" stroke-width="1" stroke-opacity="0"></use></g></g><g><use xlink:href="#bNwvhgKhl" opacity="1" fill="#67dad5" fill-opacity="1"></use><g><use xlink:href="#bNwvhgKhl" opacity="1" fill-opacity="0" stroke="#000000" stroke-width="1" stroke-opacity="0"></use></g></g><g><use xlink:href="#aibeJL5fF" opacity="1" fill="#000000" fill-opacity="0"></use><g><use xlink:href="#aibeJL5fF" opacity="1" fill-opacity="0" stroke="#000000" stroke-width="1" stroke-opacity="0"></use></g></g><g><use xlink:href="#f2iafIFkE" opacity="1" fill="#3f3d56" fill-opacity="1"></use><g><use xlink:href="#f2iafIFkE" opacity="1" fill-opacity="0" stroke="#000000" stroke-width="1" stroke-opacity="0"></use></g></g><g><use xlink:href="#a2qiDFDvgS" opacity="1" fill="#000000" fill-opacity="0"></use><g><use xlink:href="#a2qiDFDvgS" opacity="1" fill-opacity="0" stroke="#000000" stroke-width="1" stroke-opacity="0"></use></g></g><g><use xlink:href="#b2EdOrPT" opacity="1" fill="#67dad5" fill-opacity="1"></use><g><use xlink:href="#b2EdOrPT" opacity="1" fill-opacity="0" stroke="#000000" stroke-width="1" stroke-opacity="0"></use></g></g><g><use xlink:href="#lQ5UaTCjR" opacity="1" fill="#000000" fill-opacity="0"></use><g><use xlink:href="#lQ5UaTCjR" opacity="1" fill-opacity="0" stroke="#000000" stroke-width="1" stroke-opacity="0"></use></g></g><g><use xlink:href="#aFDHQluuz" opacity="1" fill="#e6e6e6" fill-opacity="1"></use><g><use xlink:href="#aFDHQluuz" opacity="1" fill-opacity="0" stroke="#000000" stroke-width="1" stroke-opacity="0"></use></g></g><g><use xlink:href="#aW3Q4voLh" opacity="1" fill="#000000" fill-opacity="0"></use><g><use xlink:href="#aW3Q4voLh" opacity="1" fill-opacity="0" stroke="#000000" stroke-width="1" stroke-opacity="0"></use></g></g><g><use xlink:href="#giI1RZxVg" opacity="1" fill="#3f3d56" fill-opacity="1"></use><g><use xlink:href="#giI1RZxVg" opacity="1" fill-opacity="0" stroke="#000000" stroke-width="1" stroke-opacity="0"></use></g></g><g><use xlink:href="#b1iO523ylX" opacity="1" fill="#000000" fill-opacity="0"></use><g><use xlink:href="#b1iO523ylX" opacity="1" fill-opacity="0" stroke="#000000" stroke-width="1" stroke-opacity="0"></use></g></g></g></g></svg>